Coordinates
version=1
nRows=17
nColumns=24
inDegrees=yes

Units are S.I. units (second, meters, Newtons, ...)
Angles are in degrees.

endheader
time	pelvis_tilt	pelvis_list	pelvis_rotation	pelvis_tx	pelvis_ty	pelvis_tz	hip_flexion_r	hip_adduction_r	hip_rotation_r	knee_angle_r	ankle_angle_r	subtalar_angle_r	mtp_angle_r	hip_flexion_l	hip_adduction_l	hip_rotation_l	knee_angle_l	ankle_angle_l	subtalar_angle_l	mtp_angle_l	lumbar_extension	lumbar_bending	lumbar_rotation
      2.33500000	     23.62423398	     -1.05508894	     -2.47094267	     -0.54954179	      0.95535367	      0.02169940	    -46.14603001	      1.33008758	     -8.95909410	     -1.74867731	      9.71028883	     15.82509052	     22.04617034	     -6.67792267	      3.66043643	    -22.37540598	      4.67924715	      0.78255477	     19.42195116	     34.47654994	    -31.11887267	      0.90116564	      2.55149343
      2.34000000	     23.65700211	     -0.99353301	     -2.66762871	     -0.54283010	      0.95474417	      0.02188126	    -46.33402080	      1.07417708	     -8.72391371	     -2.24534406	      9.63481310	     15.65869794	     22.05978566	     -6.73311393	      3.67442862	    -22.25738938	      3.98053473	      0.94604384	     19.00475499	     34.52545593	    -31.08187028	      0.66684244	      2.59499232
      2.34500000	     23.62956301	     -1.04090601	     -2.79415931	     -0.53631153	      0.95409719	      0.02198576	    -46.45694445	      0.95878156	     -8.19987786	     -2.70146532	      9.44801762	     15.16981716	     22.25128368	     -6.71335248	      3.55295166	    -21.85698027	      3.20753230	      0.92301078	     17.96133814	     34.57179973	    -31.00474150	      0.57964773	      2.66243272
      2.35000000	     23.64098343	     -0.97883981	     -2.94172696	     -0.52967167	      0.95348755	      0.02192382	    -46.55143914	      0.72007318	     -7.95978859	     -3.30924047	      9.34352013	     14.99124311	     22.66057486	     -6.74152549	      3.60251743	    -21.64100963	      2.45809953	      0.37741180	     16.56966431	     34.28265410	    -30.94278801	      0.38551949	      2.70684346
      2.35500000	     23.52961130	     -0.83567668	     -3.02279019	     -0.52292919	      0.95280067	      0.02177450	    -46.50954112	      0.47318936	     -7.88541832	     -3.91781764	      9.07717439	     14.72952580	     23.84322500	     -6.62038643	      3.77051860	    -21.32019713	      1.81506326	     -1.10801115	     14.20515644	     33.49408756	    -30.73635556	      0.13759991	      2.63952499
      2.36000000	     23.60973831	     -0.61003882	     -3.24519425	     -0.51611554	      0.95248863	      0.02174118	    -46.69732528	      0.04034732	     -7.80050248	     -4.44432288	      8.51595405	     14.55760117	     26.34850663	     -6.75702170	      4.10600973	    -21.32991213	      1.44205074	     -2.83262290	     11.79975846	     33.95640645	    -30.71740195	     -0.26470508	      2.64100318
      2.36500000	     23.68371279	     -0.40496363	     -3.44823430	     -0.50942355	      0.95225741	      0.02168344	    -46.82368783	     -0.36995283	     -7.71475513	     -5.07821609	      8.20491310	     14.49449276	     26.68188646	     -6.89988787	      4.39066082	    -21.31299896	      1.10302348	     -3.70595107	     10.41195071	     34.23067188	    -30.71301420	     -0.63274949	      2.59829694
      2.37000000	     23.63051750	     -0.18982870	     -3.62628161	     -0.50279992	      0.95198539	      0.02150770	    -46.70889208	     -0.77286437	     -7.66725626	     -5.89508123	      7.73686273	     14.26920516	     29.02373296	     -6.90152191	      4.65614523	    -21.08070391	      0.75050363	     -4.83371234	      9.36573845	     37.23830281	    -30.58217008	     -0.98767615	      2.56229701
      2.37500000	     23.59887946	      0.03745340	     -3.74880673	     -0.49637135	      0.95185051	      0.02120414	    -46.60569676	     -1.14465333	     -7.53170985	     -6.69783013	      7.35112341	     13.86559235	     29.51925902	     -6.88741043	      4.89658235	    -20.65665612	      0.21188153	     -5.91413743	      8.39897069	     37.41527268	    -30.50144852	     -1.33163914	      2.44825806
      2.38000000	     23.50303187	      0.28185767	     -3.86348711	     -0.48978312	      0.95171268	      0.02096040	    -46.41423981	     -1.50745652	     -7.41171000	     -7.51989842	      6.79227768	     13.41380840	     32.09487715	     -6.75885117	      5.11273106	    -20.46090923	     -0.51543612	     -7.14402373	      7.45293518	     39.21677668	    -30.33256059	     -1.70222158	      2.34192774
      2.38500000	     23.45649805	      0.53079678	     -4.04620681	     -0.48307704	      0.95177331	      0.02088899	    -46.24775170	     -1.90854553	     -7.27530320	     -8.40358043	      6.47391504	     13.04154697	     32.14071687	     -6.69631276	      5.32721689	    -20.38409475	     -1.31462837	     -7.76225861	      7.10658568	     39.13319773	    -30.19674709	     -2.12328726	      2.29323320
      2.39000000	     23.30755005	      0.72854077	     -4.06110261	     -0.47677343	      0.95180941	      0.02047517	    -45.84858980	     -2.16672215	     -7.24861741	     -9.49102848	      6.08710238	     12.81654294	     32.69228376	     -6.48733944	      5.48153888	    -19.76439925	     -2.12043544	     -8.08832320	      5.84322306	     38.97478101	    -30.00412409	     -2.38924591	      2.14445187
      2.39500000	     23.17976758	      1.03515813	     -4.08630632	     -0.47010693	      0.95190096	      0.02007205	    -45.50273747	     -2.52442846	     -7.45068817	    -10.50366682	      5.16313292	     12.52156760	     35.89123462	     -6.30252070	      5.75657851	    -19.31946804	     -2.94426070	     -8.00419895	      5.00397842	     39.59485395	    -29.80770965	     -2.76934882	      1.90000082
      2.40000000	     23.03415285	      1.30762317	     -4.08883306	     -0.46359921	      0.95198619	      0.01961587	    -45.02485147	     -2.86165325	     -7.59439681	    -11.76378266	      4.63509001	     12.62062145	     36.19777317	     -6.02192622	      5.97010706	    -18.93715618	     -3.95705739	     -7.46155087	      4.16840133	     39.55111304	    -29.61250184	     -3.11052003	      1.70527215
      2.40500000	     22.93111390	      1.64641897	     -4.07277865	     -0.45694792	      0.95217312	      0.01920245	    -44.60928982	     -3.23304965	     -7.77208683	    -12.95399852	      3.60567217	     12.27183227	     39.38480984	     -5.82909285	      6.26845181	    -18.52304648	     -4.91682379	     -7.12148926	      3.35621203	     38.87996934	    -29.45361634	     -3.52949557	      1.45681483
      2.41000000	     22.82908404	      1.94215801	     -4.06629893	     -0.45013755	      0.95244477	      0.01882999	    -44.14894460	     -3.57344496	     -7.86776289	    -14.23093160	      2.69065066	     11.79775601	     41.15075491	     -5.70555322	      6.54113608	    -18.15871912	     -5.79280874	     -6.52461466	      2.93217992	     37.92485407	    -29.27320230	     -3.90388400	      1.27380144
      2.41500000	     22.65640886	      2.20427626	     -4.03996390	     -0.44355134	      0.95271194	      0.01838143	    -43.55808735	     -3.88461505	     -7.95723901	    -15.55705657	      1.58636802	     11.18846190	     42.84861951	     -5.46824869	      6.76419590	    -17.81175247	     -6.75222608	     -5.82460718	      2.90379903	     36.47969778	    -29.04537658	     -4.23029349	      1.10939393
